<svg width="125" height="24" viewBox="0 0 125 24" fill="none" xmlns="http://www.w3.org/2000/svg">
<g clip-path="url(#clip0_10_2)">
<path d="M11.036 5.05798C9.59252 5.23359 8.22421 5.79931 7.07817 6.69431C5.93213 7.58931 5.0517 8.77974 4.53152 10.1376C4.01135 11.4955 3.87112 12.9695 4.12589 14.4011C4.38066 15.8327 5.02081 17.1678 5.97752 18.2629C6.93422 19.3579 8.1713 20.1715 9.55575 20.6162C10.9402 21.0609 12.4197 21.1198 13.8351 20.7866C15.2505 20.4534 16.5484 19.7408 17.5891 18.7253C18.6299 17.7098 19.3742 16.4298 19.742 15.023" stroke="white" stroke-width="2" stroke-linecap="round" stroke-linejoin="round"/>
<path d="M12 21V10L4.5 14" stroke="white" stroke-width="2" stroke-linecap="round" stroke-linejoin="round"/>
<path d="M17.5 3.00001C18.1631 3.00001 18.7989 3.2634 19.2678 3.73224C19.7366 4.20108 20 4.83696 20 5.50001C20 6.16305 19.7366 6.79893 19.2678 7.26777C18.7989 7.73661 18.1631 8.00001 17.5 8.00001L6.50002 3.00001C5.89463 2.99873 5.30934 3.21718 4.85282 3.61479C4.3963 4.0124 4.09956 4.56215 4.01771 5.16199C3.93586 5.76183 4.07445 6.37099 4.40775 6.87638C4.74105 7.38176 5.24642 7.74903 5.83002 7.91001" stroke="white" stroke-width="2" stroke-linecap="round" stroke-linejoin="round"/>
<path d="M9 12V20" stroke="white" stroke-width="2" stroke-linecap="round" stroke-linejoin="round"/>
<path d="M16 13H15.99" stroke="white" stroke-width="2" stroke-linecap="round" stroke-linejoin="round"/>
</g>
<path d="M29.336 19V15.9552L29.1248 15.3568V13.544C29.1248 12.9573 28.9664 12.5291 28.6496 12.2592C28.3445 11.9776 27.8928 11.8368 27.2944 11.8368C26.872 11.8368 26.4203 11.9248 25.9392 12.1008C25.4699 12.2651 25.0533 12.5115 24.6896 12.84L23.8976 11.6432C24.3083 11.2325 24.8245 10.9099 25.4464 10.6752C26.0683 10.4288 26.7136 10.3056 27.3824 10.3056C28.0629 10.3056 28.6613 10.4288 29.1776 10.6752C29.6939 10.9099 30.0987 11.2619 30.392 11.7312C30.6853 12.2005 30.832 12.7872 30.832 13.4912V16.2368C30.832 16.6944 30.832 17.152 30.832 17.6096C30.8437 18.0672 30.8613 18.5307 30.8848 19H29.336ZM26.872 19.176C25.8864 19.176 25.1003 18.9472 24.5136 18.4896C23.9269 18.0203 23.6336 17.4101 23.6336 16.6592C23.6336 16.1664 23.7685 15.7205 24.0384 15.3216C24.3083 14.9227 24.7013 14.6059 25.2176 14.3712C25.7339 14.1365 26.3557 14.0192 27.0832 14.0192C28.0805 14.0192 28.8432 14.2421 29.3712 14.688C29.9109 15.1339 30.1808 15.7264 30.1808 16.4656H29.776C29.776 17.3339 29.5355 18.0027 29.0544 18.472C28.5733 18.9413 27.8459 19.176 26.872 19.176ZM27.2592 17.8912C27.8341 17.8912 28.2917 17.7739 28.632 17.5392C28.9723 17.3045 29.1424 16.9877 29.1424 16.5888C29.1424 16.2016 28.9723 15.8907 28.632 15.656C28.3035 15.4213 27.8459 15.304 27.2592 15.304C26.6843 15.304 26.2208 15.4213 25.8688 15.656C25.5285 15.8907 25.3584 16.2016 25.3584 16.5888C25.3584 16.9877 25.5285 17.3045 25.8688 17.5392C26.2208 17.7739 26.6843 17.8912 27.2592 17.8912ZM36.2155 19C35.9105 19 35.6113 18.9648 35.3179 18.8944C35.0246 18.8123 34.7547 18.6773 34.5083 18.4896C34.2737 18.3019 34.0801 18.0555 33.9275 17.7504C33.7867 17.4453 33.7163 17.064 33.7163 16.6064V8.3872H35.4411V16.7472C35.4411 16.9701 35.5174 17.1579 35.6699 17.3104C35.8225 17.4512 36.0102 17.5216 36.2331 17.5216H37.5531V19H36.2155ZM32.2379 11.96V10.4816H37.5531V11.96H32.2379ZM44.4954 19V15.9552L44.2842 15.3568V13.544C44.2842 12.9573 44.1258 12.5291 43.809 12.2592C43.5039 11.9776 43.0522 11.8368 42.4538 11.8368C42.0314 11.8368 41.5796 11.9248 41.0986 12.1008C40.6292 12.2651 40.2127 12.5115 39.849 12.84L39.057 11.6432C39.4676 11.2325 39.9839 10.9099 40.6058 10.6752C41.2276 10.4288 41.873 10.3056 42.5418 10.3056C43.2223 10.3056 43.8207 10.4288 44.337 10.6752C44.8532 10.9099 45.258 11.2619 45.5514 11.7312C45.8447 12.2005 45.9914 12.7872 45.9914 13.4912V16.2368C45.9914 16.6944 45.9914 17.152 45.9914 17.6096C46.0031 18.0672 46.0207 18.5307 46.0442 19H44.4954ZM42.0314 19.176C41.0458 19.176 40.2596 18.9472 39.673 18.4896C39.0863 18.0203 38.793 17.4101 38.793 16.6592C38.793 16.1664 38.9279 15.7205 39.1978 15.3216C39.4676 14.9227 39.8607 14.6059 40.377 14.3712C40.8932 14.1365 41.5151 14.0192 42.2426 14.0192C43.2399 14.0192 44.0026 14.2421 44.5306 14.688C45.0703 15.1339 45.3402 15.7264 45.3402 16.4656H44.9354C44.9354 17.3339 44.6948 18.0027 44.2138 18.472C43.7327 18.9413 43.0052 19.176 42.0314 19.176ZM42.4186 17.8912C42.9935 17.8912 43.4511 17.7739 43.7914 17.5392C44.1316 17.3045 44.3018 16.9877 44.3018 16.5888C44.3018 16.2016 44.1316 15.8907 43.7914 15.656C43.4628 15.4213 43.0052 15.304 42.4186 15.304C41.8436 15.304 41.3802 15.4213 41.0282 15.656C40.6879 15.8907 40.5178 16.2016 40.5178 16.5888C40.5178 16.9877 40.6879 17.3045 41.0282 17.5392C41.3802 17.7739 41.8436 17.8912 42.4186 17.8912ZM51.566 19.176C50.9442 19.176 50.381 19.0528 49.8764 18.8064C49.3836 18.56 48.9964 18.1787 48.7148 17.6624C48.4332 17.1461 48.2924 16.4891 48.2924 15.6912V10.4816H49.9996V15.3744C49.9996 15.9259 50.0818 16.3659 50.246 16.6944C50.422 17.0112 50.6567 17.24 50.95 17.3808C51.2434 17.5216 51.5719 17.592 51.9356 17.592C52.3346 17.592 52.6924 17.5099 53.0092 17.3456C53.326 17.1696 53.5783 16.9115 53.766 16.5712C53.9538 16.2309 54.0476 15.8027 54.0476 15.2864V10.4816H55.7548V19H54.2764V16.6768H54.7516C54.6343 17.1696 54.4524 17.5803 54.206 17.9088C53.9596 18.2373 53.6839 18.4955 53.3788 18.6832C53.0738 18.8592 52.7628 18.9824 52.446 19.0528C52.1292 19.1349 51.8359 19.176 51.566 19.176ZM62.4452 19V6.68H66.7924C68.0126 6.68 68.9689 6.9616 69.6612 7.5248C70.3534 8.088 70.6996 8.8448 70.6996 9.7952C70.6996 10.3115 70.5881 10.8043 70.3652 11.2736C70.154 11.7312 69.8254 12.1067 69.3796 12.4C68.9454 12.6933 68.3822 12.84 67.69 12.84L67.7076 12.5232C68.4468 12.5232 69.0686 12.664 69.5732 12.9456C70.0777 13.2272 70.4649 13.6027 70.7348 14.072C71.0046 14.5296 71.1396 15.04 71.1396 15.6032C71.1396 16.624 70.7817 17.4453 70.066 18.0672C69.3502 18.6891 68.3294 19 67.0036 19H62.4452ZM64.2404 18.12L63.5012 17.4864H66.722C67.555 17.4864 68.1828 17.2987 68.6052 16.9232C69.0393 16.5477 69.2564 16.0549 69.2564 15.4448C69.2564 15.0576 69.1625 14.7115 68.9748 14.4064C68.787 14.1013 68.5172 13.8608 68.1652 13.6848C67.8249 13.5088 67.4084 13.4208 66.9156 13.4208H63.6244V11.96H66.6868C67.379 11.96 67.9129 11.784 68.2884 11.432C68.6638 11.08 68.8516 10.6107 68.8516 10.024C68.8516 9.47253 68.6521 9.03253 68.2532 8.704C67.8542 8.36373 67.2969 8.1936 66.5812 8.1936H63.5012L64.2404 7.56V18.12ZM73.7661 19V11.1856L74.5405 11.96H72.1645V10.4816H75.4909V19H73.7661ZM73.6781 8.704V6.504H75.5789V8.704H73.6781ZM77.9777 19V10.4816H79.6321V12.8048H79.1745C79.3036 12.3003 79.4855 11.8896 79.7201 11.5728C79.9548 11.2443 80.2247 10.992 80.5297 10.816C80.8348 10.6283 81.1457 10.4992 81.4625 10.4288C81.7793 10.3467 82.0668 10.3056 82.3249 10.3056C83.2871 10.3056 84.0615 10.6165 84.6481 11.2384C85.2348 11.8603 85.5281 12.7696 85.5281 13.9664V19H83.8033V14.2304C83.8033 13.3973 83.6215 12.7989 83.2577 12.4352C82.9057 12.0715 82.4423 11.8896 81.8673 11.8896C81.4684 11.8896 81.1047 11.9776 80.7761 12.1536C80.4476 12.3296 80.1836 12.5936 79.9841 12.9456C79.7964 13.2976 79.7025 13.7376 79.7025 14.2656V19H77.9777ZM87.1725 22.52V21.0944H92.2941C92.6461 21.0944 92.9101 21.0064 93.0861 20.8304C93.2738 20.6661 93.3677 20.4373 93.3677 20.144C93.3677 19.8624 93.2738 19.6453 93.0861 19.4928C92.9101 19.3403 92.6461 19.264 92.2941 19.264H89.4253C88.9794 19.264 88.6333 19.1584 88.3869 18.9472C88.1522 18.7243 88.0173 18.4485 87.9821 18.12C87.9586 17.7797 88.029 17.4395 88.1933 17.0992L89.0205 15.4448L90.4813 15.8144L89.7421 17.2928C89.6952 17.3749 89.6658 17.4629 89.6541 17.5568C89.6541 17.6507 89.6834 17.7328 89.7421 17.8032C89.8008 17.8736 89.9064 17.9088 90.0589 17.9088H92.5405C93.268 17.9088 93.8546 18.0965 94.3005 18.472C94.7581 18.8357 94.9869 19.3989 94.9869 20.1616C94.9869 20.6192 94.8813 21.024 94.6701 21.376C94.4589 21.728 94.1656 22.0037 93.7901 22.2032C93.4146 22.4144 92.9746 22.52 92.4701 22.52H87.1725ZM90.8509 11.4144L92.1709 8.5808H93.9133L92.3821 11.4144H90.8509ZM91.0797 16.6064C90.3522 16.6064 89.7069 16.4773 89.1437 16.2192C88.5922 15.9493 88.1581 15.5797 87.8413 15.1104C87.5245 14.6411 87.3661 14.1013 87.3661 13.4912V13.3328C87.3661 12.7461 87.5245 12.224 87.8413 11.7664C88.1581 11.3088 88.5922 10.9509 89.1437 10.6928C89.7069 10.4347 90.3522 10.3056 91.0797 10.3056C91.8072 10.3056 92.4466 10.4347 92.9981 10.6928C93.5613 10.9392 93.9954 11.2912 94.3005 11.7488C94.6173 12.1947 94.7757 12.7109 94.7757 13.2976V13.4912C94.7757 14.1013 94.6173 14.6411 94.3005 15.1104C93.9954 15.5797 93.5613 15.9493 92.9981 16.2192C92.4466 16.4773 91.8072 16.6064 91.0797 16.6064ZM91.0797 15.2688C91.6664 15.2688 92.1474 15.1045 92.5229 14.776C92.8984 14.4475 93.0861 14.0251 93.0861 13.5088V13.3856C93.0861 12.8811 92.8984 12.4763 92.5229 12.1712C92.1474 11.8661 91.6664 11.7136 91.0797 11.7136C90.4813 11.7136 89.9944 11.872 89.6189 12.1888C89.2434 12.4939 89.0557 12.8987 89.0557 13.4032V13.5088C89.0557 14.0251 89.2434 14.4475 89.6189 14.776C89.9944 15.1045 90.4813 15.2688 91.0797 15.2688ZM99.8973 19.176C99.2754 19.176 98.7122 19.0528 98.2077 18.8064C97.7149 18.56 97.3277 18.1787 97.0461 17.6624C96.7645 17.1461 96.6237 16.4891 96.6237 15.6912V10.4816H98.3309V15.3744C98.3309 15.9259 98.413 16.3659 98.5773 16.6944C98.7533 17.0112 98.988 17.24 99.2813 17.3808C99.5746 17.5216 99.9032 17.592 100.267 17.592C100.666 17.592 101.024 17.5099 101.34 17.3456C101.657 17.1696 101.91 16.9115 102.097 16.5712C102.285 16.2309 102.379 15.8027 102.379 15.2864V10.4816H104.086V19H102.608V16.6768H103.083C102.966 17.1696 102.784 17.5803 102.537 17.9088C102.291 18.2373 102.015 18.4955 101.71 18.6832C101.405 18.8592 101.094 18.9824 100.777 19.0528C100.46 19.1349 100.167 19.176 99.8973 19.176ZM106.578 19V10.4816H108.232V12.8048H107.775C107.904 12.3003 108.085 11.8896 108.32 11.5728C108.555 11.2443 108.825 10.992 109.13 10.816C109.435 10.6283 109.746 10.4992 110.063 10.4288C110.379 10.3467 110.667 10.3056 110.925 10.3056C111.887 10.3056 112.661 10.6165 113.248 11.2384C113.835 11.8603 114.128 12.7696 114.128 13.9664V19H112.403V14.2304C112.403 13.3973 112.221 12.7989 111.858 12.4352C111.506 12.0715 111.042 11.8896 110.467 11.8896C110.068 11.8896 109.705 11.9776 109.376 12.1536C109.048 12.3296 108.784 12.5936 108.584 12.9456C108.396 13.2976 108.303 13.7376 108.303 14.2656V19H106.578ZM115.772 22.52V21.0944H120.894C121.246 21.0944 121.51 21.0064 121.686 20.8304C121.874 20.6661 121.968 20.4373 121.968 20.144C121.968 19.8624 121.874 19.6453 121.686 19.4928C121.51 19.3403 121.246 19.264 120.894 19.264H118.025C117.579 19.264 117.233 19.1584 116.987 18.9472C116.752 18.7243 116.617 18.4485 116.582 18.12C116.559 17.7797 116.629 17.4395 116.793 17.0992L117.62 15.4448L119.081 15.8144L118.342 17.2928C118.295 17.3749 118.266 17.4629 118.254 17.5568C118.254 17.6507 118.283 17.7328 118.342 17.8032C118.401 17.8736 118.506 17.9088 118.659 17.9088H121.14C121.868 17.9088 122.455 18.0965 122.9 18.472C123.358 18.8357 123.587 19.3989 123.587 20.1616C123.587 20.6192 123.481 21.024 123.27 21.376C123.059 21.728 122.766 22.0037 122.39 22.2032C122.015 22.4144 121.575 22.52 121.07 22.52H115.772ZM119.451 11.4144L120.771 8.5808H122.513L120.982 11.4144H119.451ZM119.68 16.6064C118.952 16.6064 118.307 16.4773 117.744 16.2192C117.192 15.9493 116.758 15.5797 116.441 15.1104C116.124 14.6411 115.966 14.1013 115.966 13.4912V13.3328C115.966 12.7461 116.124 12.224 116.441 11.7664C116.758 11.3088 117.192 10.9509 117.744 10.6928C118.307 10.4347 118.952 10.3056 119.68 10.3056C120.407 10.3056 121.047 10.4347 121.598 10.6928C122.161 10.9392 122.595 11.2912 122.9 11.7488C123.217 12.1947 123.376 12.7109 123.376 13.2976V13.4912C123.376 14.1013 123.217 14.6411 122.9 15.1104C122.595 15.5797 122.161 15.9493 121.598 16.2192C121.047 16.4773 120.407 16.6064 119.68 16.6064ZM119.68 15.2688C120.266 15.2688 120.747 15.1045 121.123 14.776C121.498 14.4475 121.686 14.0251 121.686 13.5088V13.3856C121.686 12.8811 121.498 12.4763 121.123 12.1712C120.747 11.8661 120.266 11.7136 119.68 11.7136C119.081 11.7136 118.594 11.872 118.219 12.1888C117.843 12.4939 117.656 12.8987 117.656 13.4032V13.5088C117.656 14.0251 117.843 14.4475 118.219 14.776C118.594 15.1045 119.081 15.2688 119.68 15.2688Z" fill="white"/>
<defs>
<clipPath id="clip0_10_2">
<rect width="24" height="24" fill="white"/>
</clipPath>
</defs>
</svg>
