<svg width="119" height="28" viewBox="0 0 119 28" fill="none" xmlns="http://www.w3.org/2000/svg">
<g clip-path="url(#clip0_9_18)">
<path d="M8.767 14.008C8.767 11.12 11.117 8.778 14.018 8.778C16.918 8.778 19.269 11.119 19.269 14.008C19.269 16.898 16.919 19.239 14.019 19.239C11.118 19.239 8.767 16.896 8.767 14.008Z" fill="#00AA13"/>
<path d="M14.017 0.0619976C6.285 0.0619976 0.0169983 6.306 0.0169983 14.009C0.0169983 19.791 3.522 24.727 8.611 26.875C8.96886 27.0254 9.35564 27.0945 9.74344 27.0773C10.1312 27.0601 10.5104 26.9571 10.8535 26.7756C11.1967 26.5941 11.4953 26.3387 11.7278 26.0279C11.9603 25.717 12.1209 25.3584 12.198 24.978C12.3169 24.385 12.2264 23.769 11.9419 23.2353C11.6575 22.7015 11.1966 22.2829 10.638 22.051V22.05C7.484 20.733 5.267 17.63 5.267 14.009C5.267 9.194 9.184 5.291 14.018 5.291C18.852 5.291 22.77 9.194 22.77 14.009C22.77 17.629 20.553 20.733 17.398 22.049V22.051C16.8393 22.2831 16.3784 22.702 16.0941 23.236C15.8098 23.77 15.7196 24.3862 15.8389 24.9793C15.9582 25.5724 16.2796 26.1058 16.7483 26.4883C17.217 26.8709 17.804 27.079 18.409 27.077C18.7569 27.0749 19.1011 27.006 19.423 26.874C24.512 24.726 28.018 19.789 28.018 14.008C28.018 6.304 21.749 0.0599976 14.017 0.0599976" fill="#00AA13"/>
<path d="M68.641 12.461C68.641 9.938 66.904 8.062 64.196 8.062C61.486 8.062 59.75 9.939 59.75 12.462C59.75 14.983 61.487 16.862 64.196 16.862C66.904 16.862 68.641 14.983 68.641 12.461ZM55.392 12.462C55.392 7.828 59.072 4.249 64.196 4.249C69.348 4.249 72.999 7.828 72.999 12.462C72.999 17.096 69.348 20.674 64.196 20.674C59.073 20.674 55.392 17.096 55.392 12.462ZM71.503 24.03H73.858C75.124 24.03 75.566 23.56 75.566 22.446V4.254H79.923V22.504C79.923 26.347 78.363 27.989 74.212 27.989H71.502V24.029L71.503 24.03ZM48.407 13.31C48.407 15.23 46.451 16.764 43.962 16.764C41.148 16.764 39.399 15.111 39.399 12.366C39.399 9.828 41.266 8.086 44.14 8.086C46.422 8.086 48.407 9.68 48.407 11.48V13.31ZM48.585 4.244V6.078H48.525C47.399 4.898 45.533 4.248 43.311 4.248C38.54 4.248 35.014 7.79 35.014 12.365C35.014 17.118 38.629 20.601 43.459 20.601C45.621 20.601 47.429 19.921 48.526 18.711H48.586V20.293C48.586 22.418 46.748 23.982 44.318 23.982C41.868 23.982 40.442 23.294 39.204 22.115L36.367 24.835C38.268 26.845 41.134 27.988 44.407 27.988C49.386 27.988 52.792 24.661 52.792 20.234V4.244H48.585ZM91.058 7.768C93.383 7.768 95.003 8.971 95.209 10.79H86.847C87.083 8.971 88.703 7.768 91.058 7.768ZM91.508 17.154C88.896 17.154 86.843 15.472 86.789 13.84H99.449V12.609C99.449 7.945 96.21 4.249 90.969 4.249C86.023 4.249 82.49 7.711 82.49 12.492C82.49 17.419 86.217 20.674 91.695 20.674C95.051 20.674 97.458 19.071 98.714 17.536L95.761 15.474C94.448 16.695 93.255 17.154 91.508 17.154ZM102.016 0.0199966H106.222L106.245 10.79H106.302L113.344 4.212H118.982L111.684 11.093L118.953 20.661H113.919L108.927 13.746H108.87L106.222 16.245V20.673H102.016V0.0199966Z" fill="#1F1F1F"/>
</g>
<defs>
<clipPath id="clip0_9_18">
<rect width="119" height="28" fill="white"/>
</clipPath>
</defs>
</svg>
